<?xml version="1.0" encoding="UTF-8" standalone="no"?>
<svg
   xmlns:dc="http://purl.org/dc/elements/1.1/"
   xmlns:cc="http://creativecommons.org/ns#"
   xmlns:rdf="http://www.w3.org/1999/02/22-rdf-syntax-ns#"
   xmlns:svg="http://www.w3.org/2000/svg"
   xmlns="http://www.w3.org/2000/svg"
   xmlns:sodipodi="http://sodipodi.sourceforge.net/DTD/sodipodi-0.dtd"
   xmlns:inkscape="http://www.inkscape.org/namespaces/inkscape"
   width="8"
   height="8"
   viewBox="0 0 8 8"
   id="svg2"
   version="1.1"
   inkscape:version="0.48.5 r10040"
   sodipodi:docname="share-boxed.svg">
  <metadata
     id="metadata10">
    <rdf:RDF>
      <cc:Work
         rdf:about="">
        <dc:format>image/svg+xml</dc:format>
        <dc:type
           rdf:resource="http://purl.org/dc/dcmitype/StillImage" />
        <dc:title></dc:title>
      </cc:Work>
    </rdf:RDF>
  </metadata>
  <defs
     id="defs8" />
  <sodipodi:namedview
     pagecolor="#ffffff"
     bordercolor="#666666"
     borderopacity="1"
     objecttolerance="10"
     gridtolerance="10"
     guidetolerance="10"
     inkscape:pageopacity="0"
     inkscape:pageshadow="2"
     inkscape:window-width="1280"
     inkscape:window-height="758"
     id="namedview6"
     showgrid="false"
     inkscape:zoom="29.5"
     inkscape:cx="-0.33898305"
     inkscape:cy="4"
     inkscape:window-x="0"
     inkscape:window-y="0"
     inkscape:window-maximized="1"
     inkscape:current-layer="svg2" />
  <path
     d="M 0.75,0 C 0.34,0 0,0.34 0,0.75 l 0,5.5 C 0,6.66 0.34,7 0.75,7 l 4.5,0 C 5.66,7 6,6.66 6,6.25 L 6,5 5,5 5,6 1,6 1,1 3,1 3,0 z M 1.7605673,1.6507237 2.506211,2.3170685 C 3.8764275,0.78378843 6.127576,0.57585606 7.7718225,1.7223764 6.9752925,1.2930606 5.9692734,1.4433308 5.334295,2.1538753 L 3.9974984,3.6497583 4.7431421,4.3161031 1.915058,4.4792965 z"
     id="path4"
     inkscape:connector-curvature="0"
     sodipodi:nodetypes="sssssscccccccscccscccc" />
</svg>
